<svg width="120" height="117" viewBox="0 0 120 117" fill="none" xmlns="http://www.w3.org/2000/svg">
<path d="M45.2 2.00007C34.3 4.90007 26.5 9.40006 18 18.0001C9.29998 26.6001 4.89998 34.3001 1.99998 45.6001C-1.60002 59.7001 0.199982 75.0001 7.19998 88.3001C12 97.5001 23.6 108.8 33.1 113.4C43.4 118.5 44.4 118.2 44.8 109.9L45.1 103.3H39.2C31.7 103.3 27.6 101 24.5 94.9001C23.2 92.3001 20.7 89.1001 19 87.6001C15.4 84.7001 15.9 82.5001 19.9 83.5001C23.1 84.3001 25 85.8001 24.6 87.3001C24.5 88.0001 24.5 88.1001 24.8 87.7001C25.3 86.8001 28 88.8001 28 90.2001C28 90.7001 27.6 90.8001 27 90.5001C26.5 90.2001 26 90.4001 26 91.0001C26 91.7001 26.6 92.0001 27.4 91.7001C28.2 91.4001 29.6 92.0001 30.5 93.0001C34.4 97.3001 44.2 96.7001 45.8 92.2001C46.4 90.7001 47.1 88.8001 47.5 87.9001C48 86.6001 47.3 86.1001 44 85.6001C38 84.7001 30.5 80.6001 27.5 76.6001C21.5 68.7001 20.2 55.3001 24.6 46.0001C26.5 42.1001 27.2 39.1001 27.1 35.7001C26.9 33.1001 27.1 29.6001 27.5 28.0001C28.4 24.0001 31.8 24.0001 39.4 27.9001C44.9 30.7001 45.3 30.7001 52.6 29.7001C57.9 28.9001 62.1 28.9001 67.4 29.7001C74.7 30.7001 75.1 30.7001 80.6 27.9001C88.2 24.0001 91.6 24.0001 92.5 28.0001C92.9 29.6001 93.1 33.1001 92.9 35.7001C92.8 39.1001 93.5 42.1001 95.4 46.0001C99.8 55.3001 98.5 68.7001 92.5 76.6001C89.4 80.7001 81.7 84.8001 75.6 85.6001L71.1 86.3001L72.8 88.8001C74.1 90.8001 74.6 94.5001 75 103.9C75.6 119 75.6 119 86.9 113.4C96.4 108.8 108 97.5001 112.8 88.3001C117 80.3001 120 68.5001 120 60.0001C120 51.5001 117 39.7001 112.8 31.7001C108.6 23.6001 96.4 11.4001 88.3 7.20007C75.1 0.300068 59.2 -1.59993 45.2 2.00007Z" fill="#9CA3AF"/>
<path d="M29 95C29 95.5 29.5 96 30 96C30.6 96 31 95.5 31 95C31 94.4 30.6 94 30 94C29.5 94 29 94.4 29 95Z" fill="#9CA3AF"/>
<path d="M33 97C33 97.5 33.5 98 34 98C34.6 98 35 97.5 35 97C35 96.4 34.6 96 34 96C33.5 96 33 96.4 33 97Z" fill="#9CA3AF"/>
<path d="M42.5 97C42.2 97.5 42.6 98 43.5 98C44.4 98 44.8 97.5 44.5 97C44.2 96.4 43.7 96 43.5 96C43.3 96 42.8 96.4 42.5 97Z" fill="#9CA3AF"/>
<path d="M38 98C38 98.5 38.5 99 39 99C39.6 99 40 98.5 40 98C40 97.4 39.6 97 39 97C38.5 97 38 97.4 38 98Z" fill="#9CA3AF"/>
</svg>
