<svg width="48" height="48" viewBox="0 0 48 48" fill="none" xmlns="http://www.w3.org/2000/svg">
<rect x="17.1674" y="12.1719" width="1.64807" height="1.65043" fill="#D1D5DB"/>
<rect x="29.1845" y="12.1719" width="1.64807" height="1.65043" fill="#D1D5DB"/>
<rect x="36.1202" y="15.6104" width="1.64807" height="1.65043" fill="#D1D5DB"/>
<rect x="37.7682" y="29.3639" width="1.64807" height="1.7192" fill="#D1D5DB"/>
<rect x="36.0515" y="31.083" width="3.36481" height="1.7192" fill="#D1D5DB"/>
<rect x="34.3347" y="32.8022" width="5.08154" height="1.7192" fill="#D1D5DB"/>
<rect x="29.1845" y="36.1719" width="10.2318" height="1.7192" fill="#D1D5DB"/>
<rect x="30.8326" y="37.8911" width="8.58369" height="1.7192" fill="#D1D5DB"/>
<rect x="30.8326" y="39.6104" width="8.58369" height="1.7192" fill="#D1D5DB"/>
<rect x="17.1674" y="36.2406" width="1.64807" height="1.65043" fill="#D1D5DB"/>
<rect x="13.7339" y="37.8911" width="3.43348" height="1.7192" fill="#D1D5DB"/>
<rect x="8.58371" y="32.8022" width="5.08154" height="1.7192" fill="#D1D5DB"/>
<rect x="8.58371" y="31.083" width="3.36481" height="1.7192" fill="#D1D5DB"/>
<rect x="8.58371" y="37.96" width="1.64807" height="1.7192" fill="#D1D5DB"/>
<rect x="12.0172" y="36.2406" width="5.15021" height="1.65043" fill="#D1D5DB"/>
<rect x="10.3004" y="34.5215" width="10.2318" height="1.7192" fill="#D1D5DB"/>
<rect x="3.43347" y="36.2406" width="1.71674" height="1.65043" fill="#D1D5DB"/>
<rect x="5.15021" y="37.96" width="1.71674" height="1.65043" fill="#D1D5DB"/>
<rect x="6.86694" y="39.6792" width="5.15021" height="1.7192" fill="#D1D5DB"/>
<rect x="8.58371" y="41.3983" width="10.3004" height="1.65043" fill="#D1D5DB"/>
<rect x="10.3004" y="43.0486" width="8.58369" height="1.7192" fill="#D1D5DB"/>
<rect x="12.0172" y="44.7678" width="6.86695" height="1.7192" fill="#D1D5DB"/>
<rect x="15.4506" y="46.5559" width="3.43348" height="1.44413" fill="#D1D5DB"/>
<rect x="15.4506" y="46.4872" width="3.43348" height="1.51289" fill="#D1D5DB"/>
<rect x="30.9013" y="46.4872" width="1.71674" height="1.51289" fill="#D1D5DB"/>
<rect x="30.8326" y="44.7678" width="5.15021" height="1.7192" fill="#D1D5DB"/>
<rect x="30.8326" y="43.0486" width="6.86695" height="1.7192" fill="#D1D5DB"/>
<rect x="30.8326" y="41.3295" width="8.58369" height="1.7192" fill="#D1D5DB"/>
<rect x="39.4163" y="39.6792" width="1.71674" height="1.65043" fill="#D1D5DB"/>
<rect x="41.1331" y="37.96" width="1.71674" height="1.65043" fill="#D1D5DB"/>
<rect x="42.8498" y="36.1719" width="1.71674" height="1.7192" fill="#D1D5DB"/>
<rect x="44.6352" y="34.5215" width="1.64807" height="1.65043" fill="#D1D5DB"/>
<rect x="46.2833" y="19.0486" width="1.71674" height="11.9656" fill="#D1D5DB"/>
<rect y="19.0486" width="1.71674" height="11.9656" fill="#D1D5DB"/>
<rect x="27.4678" y="34.5215" width="11.9485" height="1.65043" fill="#D1D5DB"/>
<rect x="15.4506" y="10.4528" width="17.0987" height="1.65043" fill="#D1D5DB"/>
<rect x="10.2318" y="8.80225" width="27.5365" height="1.65043" fill="#D1D5DB"/>
<rect x="10.2318" y="7.15186" width="27.5365" height="1.65043" fill="#D1D5DB"/>
<rect x="10.2318" y="5.50146" width="27.5365" height="1.65043" fill="#D1D5DB"/>
<rect x="10.2318" y="3.57593" width="27.5365" height="1.9255" fill="#D1D5DB"/>
<rect x="12.0172" y="1.65051" width="23.9657" height="1.9255" fill="#D1D5DB"/>
<rect x="13.7339" width="18.8155" height="1.65043" fill="#D1D5DB"/>
<rect x="37.7682" y="5.29504" width="1.64807" height="13.7536" fill="#D1D5DB"/>
<rect x="8.58371" y="5.29504" width="1.64807" height="13.7536" fill="#D1D5DB"/>
<rect x="42.8498" y="12.1719" width="1.78541" height="24" fill="#D1D5DB"/>
<rect x="3.43347" y="12.1719" width="1.71674" height="24" fill="#D1D5DB"/>
<rect x="41.1331" y="8.73364" width="1.71674" height="29.2264" fill="#D1D5DB"/>
<rect x="5.15021" y="8.73364" width="1.71674" height="29.2264" fill="#D1D5DB"/>
<rect x="39.4163" y="7.0144" width="1.71674" height="32.6648" fill="#D1D5DB"/>
<rect x="6.86694" y="7.0144" width="1.71674" height="32.6648" fill="#D1D5DB"/>
<rect x="44.6352" y="15.6104" width="1.64807" height="18.9112" fill="#D1D5DB"/>
<rect x="1.71674" y="15.6104" width="1.71674" height="18.9112" fill="#D1D5DB"/>
<rect x="10.2318" y="15.6104" width="1.71674" height="1.65043" fill="#D1D5DB"/>
<rect x="8.58371" y="29.3639" width="1.71674" height="1.7192" fill="#D1D5DB"/>
</svg>
