<svg width="48" height="48" viewBox="0 0 48 48" fill="none" xmlns="http://www.w3.org/2000/svg">
<rect x="6.48651" y="15.0671" width="32.803" height="20.2332" fill="#D1D5DB"/>
<rect x="30.5791" width="8.71041" height="2.47533" fill="#D1D5DB"/>
<rect x="28.3551" y="2.47534" width="13.0656" height="2.58296" fill="#D1D5DB"/>
<rect x="26.2239" y="5.05835" width="21.776" height="2.47533" fill="#D1D5DB"/>
<rect x="24" y="7.53369" width="21.776" height="2.58296" fill="#D1D5DB"/>
<rect x="24" y="10.1165" width="24" height="2.58296" fill="#D1D5DB"/>
<rect x="24" y="12.6995" width="24" height="2.36771" fill="#D1D5DB"/>
<rect x="39.2894" y="15.0671" width="2.13127" height="15.1749" fill="#D1D5DB"/>
<rect x="41.4208" y="15.0671" width="2.22394" height="10.1166" fill="#D1D5DB"/>
<rect x="10.9343" y="35.3005" width="26.1312" height="2.58296" fill="#D1D5DB"/>
<rect x="13.0656" y="37.8833" width="21.8687" height="2.58296" fill="#D1D5DB"/>
<rect x="4.35516" y="40.4663" width="28.3552" height="2.58296" fill="#D1D5DB"/>
<rect x="2.13135" y="43.0493" width="28.4478" height="2.36771" fill="#D1D5DB"/>
<rect x="8.71051" y="45.417" width="19.6448" height="2.58296" fill="#D1D5DB"/>
<rect x="4.35516" y="30.3496" width="2.13127" height="2.47533" fill="#D1D5DB"/>
<rect x="4.35516" y="20.2332" width="2.13127" height="7.53362" fill="#D1D5DB"/>
<rect x="2.224" y="20.2332" width="2.13127" height="4.95066" fill="#D1D5DB"/>
<rect y="17.6501" width="2.22394" height="5.05829" fill="#D1D5DB"/>
<rect x="4.35516" y="15.0671" width="2.13127" height="2.47533" fill="#D1D5DB"/>
<rect x="2.13135" y="12.592" width="13.1583" height="2.47533" fill="#D1D5DB"/>
<rect x="2.13135" y="10.1165" width="8.80308" height="2.47533" fill="#D1D5DB"/>
<rect x="2.13135" y="7.53369" width="4.35521" height="2.58296" fill="#D1D5DB"/>
<rect x="2.13135" y="5.05835" width="2.22394" height="2.47533" fill="#D1D5DB"/>
</svg>
